<?xml version="1.0" encoding="UTF-8" standalone="no"?><!DOCTYPE svg PUBLIC "-//W3C//DTD SVG 1.1//EN" "http://www.w3.org/Graphics/SVG/1.1/DTD/svg11.dtd"><svg width="100%" height="100%" viewBox="0 0 1000 1000" version="1.1" xmlns="http://www.w3.org/2000/svg" xmlns:xlink="http://www.w3.org/1999/xlink" xml:space="preserve" xmlns:serif="http://www.serif.com/" style="fill-rule:evenodd;clip-rule:evenodd;stroke-linejoin:round;stroke-miterlimit:2;"><path d="M781.716,95.916c-22.076,-0 -40,-17.924 -40,-40c0,-22.077 17.924,-40 40,-40l169.029,-0c22.092,-0 40,17.908 40,40l0,166.531c0,22.077 -17.923,40 -40,40c-22.076,0 -40,-17.923 -40,-40l0,-126.531l-129.029,-0Zm129.029,237.553c0,-22.077 17.924,-40 40,-40c22.077,-0 40,17.923 40,40l0,333.063c0,22.076 -17.923,40 -40,40c-22.076,-0 -40,-17.924 -40,-40l0,-333.063Zm0,444.084c0,-22.077 17.924,-40 40,-40c22.077,-0 40,17.923 40,40l0,166.531c0,22.092 -17.908,40 -40,40l-169.029,0c-22.076,0 -40,-17.923 -40,-40c0,-22.076 17.924,-40 40,-40l129.029,0l0,-126.531Zm-241.716,126.531c22.077,0 40,17.924 40,40c0,22.077 -17.923,40 -40,40l-338.059,0c-22.076,0 -40,-17.923 -40,-40c0,-22.076 17.924,-40 40,-40l338.059,0Zm-450.745,0c22.076,0 40,17.924 40,40c-0,22.077 -17.924,40 -40,40l-169.029,0c-22.092,0 -40,-17.908 -40,-40l-0,-166.531c-0,-22.077 17.923,-40 40,-40c22.076,-0 40,17.923 40,40l-0,126.531l129.029,0Zm-129.029,-237.553c-0,22.077 -17.924,40 -40,40c-22.077,0 -40,-17.923 -40,-40l-0,-333.063c-0,-22.076 17.923,-40 40,-40c22.076,0 40,17.924 40,40l-0,333.063Zm-0,-444.084c-0,22.077 -17.924,40 -40,40c-22.077,0 -40,-17.923 -40,-40l-0,-166.531c-0,-22.092 17.908,-40 40,-40l169.029,-0c22.076,-0 40,17.923 40,40c-0,22.076 -17.924,40 -40,40l-129.029,-0l-0,126.531Zm241.716,-126.531c-22.077,-0 -40,-17.924 -40,-40c-0,-22.077 17.923,-40 40,-40l338.059,-0c22.076,-0 40,17.923 40,40c-0,22.076 -17.924,40 -40,40l-338.059,-0Z"/><g transform="matrix(0.735479,0,0,1,-14.2672,0)"><g transform="matrix(644.557,0,0,644.557,1139.53,730.694)"></g><text x="244.135px" y="730.694px" style="font-family:'Arial-BoldMT', 'Arial', sans-serif;font-weight:700;font-size:644.557px;">ED</text></g></svg>