<?xml version="1.0" encoding="UTF-8" standalone="no"?><!DOCTYPE svg PUBLIC "-//W3C//DTD SVG 1.1//EN" "http://www.w3.org/Graphics/SVG/1.1/DTD/svg11.dtd"><svg width="100%" height="100%" viewBox="0 0 798 1095" version="1.1" xmlns="http://www.w3.org/2000/svg" xmlns:xlink="http://www.w3.org/1999/xlink" xml:space="preserve" xmlns:serif="http://www.serif.com/" style="fill-rule:evenodd;clip-rule:evenodd;stroke-linejoin:round;stroke-miterlimit:1.5;"><g><path d="M398.835,0l-392.084,237.637l191.163,110.368l200.921,-348.005Z"/><rect x="291.271" y="374.203" width="107.569" height="339.681" style="fill:url(#_Linear1);"/><path d="M398.84,713.884l-0,198.441l-36.557,-0l-71.012,-198.441l107.569,-0Z" style="fill:url(#_Linear2);"/><path d="M362.226,912.325l36.614,-0l-0,180.446l-36.614,-180.446Z" style="fill:#d3dbea;"/><path d="M116.733,381.8l174.538,-7.597l-0,121.281c-0,0 -4.649,-52.918 -46.945,-79.4c-48.55,-30.397 -127.593,-34.284 -127.593,-34.284Z" style="fill:#fff;"/><path d="M398.84,384.518c-0,0 -342.749,5.66 -376.578,-10.315c-35.05,-16.551 -14.98,-135.1 -14.98,-135.1l391.558,0" style="fill:#fff;"/><path d="M398.84,1092.77l-36.614,-180.446l0.057,-0l-71.012,-198.441l-0,-218.4c-0,0 -4.649,-52.918 -46.945,-79.4c-31.775,-19.894 -76.612,-28.433 -103.803,-31.959c-58.315,-1.484 -106.61,-4.42 -118.261,-9.922c-35.05,-16.551 -14.98,-135.1 -14.98,-135.1l391.558,0" style="fill:none;stroke:#000;stroke-width:3.13px;"/></g><g><path d="M398.84,0l392.084,237.637l-191.163,110.368l-200.921,-348.005Z"/><rect x="398.835" y="374.203" width="107.569" height="339.681" style="fill:url(#_Linear3);"/><path d="M398.835,713.884l0,198.441l36.557,-0l71.012,-198.441l-107.569,-0Z" style="fill:url(#_Linear4);"/><path d="M435.449,912.325l-36.614,-0l0,180.446l36.614,-180.446Z" style="fill:#d3dbea;"/><path d="M680.942,381.8l-174.538,-7.597l0,121.281c0,0 4.649,-52.918 46.945,-79.4c48.55,-30.397 127.593,-34.284 127.593,-34.284Z" style="fill:#fff;"/><path d="M398.835,384.518c0,0 342.749,5.66 376.578,-10.315c35.05,-16.551 14.98,-135.1 14.98,-135.1l-391.558,0" style="fill:#fff;"/><path d="M398.835,1092.77l36.614,-180.446l-0.057,-0l71.012,-198.441l0,-218.4c0,0 4.649,-52.918 46.945,-79.4c31.775,-19.894 76.613,-28.433 103.803,-31.959c58.315,-1.484 106.61,-4.42 118.261,-9.922c35.05,-16.551 14.98,-135.1 14.98,-135.1l-391.558,0" style="fill:none;stroke:#000;stroke-width:3.13px;"/></g><defs><linearGradient id="_Linear1" x1="0" y1="0" x2="1" y2="0" gradientUnits="userSpaceOnUse" gradientTransform="matrix(6.37879e-15,104.174,-104.174,6.37879e-15,345.055,495.484)"><stop offset="0" style="stop-color:#fff;stop-opacity:1"/><stop offset="0.49" style="stop-color:#fdfdfd;stop-opacity:1"/><stop offset="1" style="stop-color:#f8f8f6;stop-opacity:1"/></linearGradient><linearGradient id="_Linear2" x1="0" y1="0" x2="1" y2="0" gradientUnits="userSpaceOnUse" gradientTransform="matrix(-0.00495981,198.441,215.128,0.00537689,398.84,713.884)"><stop offset="0" style="stop-color:#f7f7f5;stop-opacity:1"/><stop offset="1" style="stop-color:#ffe38e;stop-opacity:1"/></linearGradient><linearGradient id="_Linear3" x1="0" y1="0" x2="1" y2="0" gradientUnits="userSpaceOnUse" gradientTransform="matrix(-6.37879e-15,104.174,104.174,6.37879e-15,452.62,495.484)"><stop offset="0" style="stop-color:#fff;stop-opacity:1"/><stop offset="0.49" style="stop-color:#fdfdfd;stop-opacity:1"/><stop offset="1" style="stop-color:#f8f8f6;stop-opacity:1"/></linearGradient><linearGradient id="_Linear4" x1="0" y1="0" x2="1" y2="0" gradientUnits="userSpaceOnUse" gradientTransform="matrix(0.00495981,198.441,-215.128,0.00537689,398.835,713.884)"><stop offset="0" style="stop-color:#f7f7f5;stop-opacity:1"/><stop offset="1" style="stop-color:#ffe38e;stop-opacity:1"/></linearGradient></defs></svg>